<svg 
version="1.1" 
viewBox="0 0 96 96" 
xmlns="http://www.w3.org/2000/svg" 
xmlns:xlink="http://www.w3.org/1999/xlink">
  <path d="M29.436 33.932h-21.968c-3.868 0-7.016 3.144-7.016 7.012v41.976c0 3.868 3.148 7.012 7.016 7.012h21.968c3.868 0 7.016-3.144 7.016-7.012v-41.976c0-3.864-3.148-7.012-7.016-7.012z" fill="current"/>
  <path d="M95.548 44.144c0-6.352-8.524-10.212-12.264-10.212h-16.856c2.86-12.46-0.596-19.572-3.028-22.788-2.408-3.18-5.728-5.080-8.884-5.080-2.452 0-4.564 1.156-5.772 3.184-0.184 0.308-0.284 0.668-0.284 1.028v10.744c-2.42 6.984-4.784 12.444-8 16.58v47.916c0.756 0.252 1.484 0.424 2.080 0.424h36.908c1.736 0 3.424-0.904 4.916-2.596 2.064-2.368 3.444-6.016 3.496-9.008 2.992-2.248 4.416-6.352 4.152-12 3.22-3.344 3.020-8.092 1.972-11.024 1.316-1.88 1.564-5.068 1.564-7.168z" fill="current"/>
</svg>
