<svg 
  enable-background="new 0 0 24 24" 
  id="Layer_1" 
  version="1.1" 
  viewBox="0 0 24 24" 
  xml:space="preserve" 
  xmlns="http://www.w3.org/2000/svg" 
  xmlns:xlink="http://www.w3.org/1999/xlink">
  <style type="text/css">
    .st0{fill:current; stroke-width: 0.6px;}
  </style>
  <g>
    <path  class="st0" d="M19.862,21.484h-9.229c-0.833,0-2.52-1.094-2.52-1.988v-8.146c0-0.182,0.098-0.35,0.256-0.438   c1.841-1.028,2.772-2.854,3.744-5.657V2.569c0-0.091,0.024-0.18,0.071-0.258c0.304-0.506,0.83-0.796,1.443-0.796   c0.789,0,1.619,0.477,2.221,1.271c0.607,0.805,1.473,2.582,0.758,5.696h4.213c0.938,0,3.065,0.966,3.065,2.554   c0,0.523-0.062,1.321-0.395,1.788c0.262,0.733,0.312,1.922-0.493,2.76c0.066,1.412-0.289,2.438-1.038,3   c-0.013,0.746-0.356,1.658-0.874,2.252C20.719,21.26,20.295,21.484,19.862,21.484z M9.115,11.634v7.86   c0.082,0.268,1.096,0.988,1.52,0.988h9.228c0.132,0,0.305-0.113,0.475-0.308c0.404-0.465,0.688-1.284,0.618-1.791   c-0.029-0.207,0.073-0.407,0.258-0.51c0.812-0.438,0.834-1.729,0.777-2.461c-0.015-0.16,0.054-0.317,0.178-0.424   c0.726-0.604,0.502-1.712,0.294-2.029c-0.089-0.137-0.105-0.31-0.046-0.459c0.062-0.15,0.19-0.265,0.351-0.301   c-0.021-0.027,0.123-0.435,0.123-1.168c0-0.813-1.486-1.554-2.064-1.554h-4.858c-0.157,0-0.304-0.072-0.397-0.197   s-0.125-0.287-0.082-0.438c0.64-2.263,0.481-4.251-0.43-5.458c-0.486-0.646-1.056-0.874-1.424-0.874   c-0.219,0-0.392,0.071-0.516,0.213v2.607c0,0.058-0.01,0.109-0.027,0.163C12.096,8.376,11.073,10.421,9.115,11.634z"/>
    <path  class="st0" d="M7.361,22.484H1.869c-0.967,0-1.754-0.787-1.754-1.754V10.236c0-0.967,0.787-1.753,1.754-1.753h5.492   c0.967,0,1.754,0.786,1.754,1.753V20.73C9.115,21.697,8.328,22.484,7.361,22.484z M1.869,9.483c-0.416,0-0.754,0.338-0.754,0.753   V20.73c0,0.416,0.338,0.754,0.754,0.754h5.492c0.416,0,0.754-0.338,0.754-0.754V10.236c0-0.415-0.338-0.753-0.754-0.753H1.869z"/>
  </g>
</svg>
