<svg viewBox="0 0 208 90" fill="none" xmlns="http://www.w3.org/2000/svg">
<path d="M44 0H84V24H44V0Z" fill="current"/>
<path d="M167.5 0H207.5V24H167.5V0Z" fill="current"/>
<path d="M207 43L207 90L183 90L183 43L207 43Z" fill="current"/>
<path d="M117.688 90L64.3086 13.7671L83.9683 0.00125815L137.347 76.2342L117.688 90Z" fill="current"/>
<path d="M167.195 0L113.818 76.2305L133.476 89.9951L186.853 13.7645L167.195 0Z" fill="current"/>
<path d="M44 66H74V90H44V66Z" fill="current"/>
<path d="M125.58 80.25L133.48 90H117.68L125.58 80.25Z" fill="current"/>
<path d="M74 66L90.5 90H57.5L74 66Z" fill="current"/>
<path d="M45 -2.08644e-06C39.0905 -2.87706e-06 33.2389 1.16396 27.7792 3.42542C22.3196 5.68688 17.3588 9.00155 13.1802 13.1802C9.00156 17.3588 5.68688 22.3196 3.42542 27.7792C1.16396 33.2389 -1.35258e-06 39.0905 -1.85442e-06 45C-2.35626e-06 50.9095 1.16396 56.7611 3.42542 62.2208C5.68688 67.6804 9.00155 72.6412 13.1802 76.8198C17.3588 80.9984 22.3196 84.3131 27.7792 86.5746C33.2389 88.836 39.0905 90 45 90L45 66.0065C42.2414 66.0065 39.5098 65.4631 36.9612 64.4074C34.4126 63.3518 32.0968 61.8044 30.1462 59.8538C28.1956 57.9032 26.6482 55.5874 25.5926 53.0388C24.5369 50.4902 23.9935 47.7586 23.9935 45C23.9935 42.2414 24.5369 39.5098 25.5926 36.9612C26.6482 34.4126 28.1956 32.0968 30.1462 30.1462C32.0968 28.1956 34.4126 26.6482 36.9612 25.5926C39.5098 24.5369 42.2414 23.9936 45 23.9936L45 -2.08644e-06Z" fill="current"/>
</svg>
