<svg width="current" height="current" viewBox="0 0 209 90" fill="none" xmlns="http://www.w3.org/2000/svg">
<path d="M45 0H85V24H45V0Z" fill="current"/>
<path d="M168.5 0H208.5V24H168.5V0Z" fill="current"/>
<path d="M208 43L208 90L184 90L184 43L208 43Z" fill="current"/>
<path d="M118.688 90L65.3086 13.7671L84.9683 0.00125938L138.347 76.2342L118.688 90Z" fill="current"/>
<path d="M168.195 0L114.818 76.2305L134.476 89.9951L187.853 13.7645L168.195 0Z" fill="current"/>
<path d="M45 66H75V90H45V66Z" fill="current"/>
<path d="M126.58 80.25L134.48 90H118.68L126.58 80.25Z" fill="current"/>
<path d="M75 66L91.5 90H58.5L75 66Z" fill="current"/>
<path d="M45 -2.08644e-06C39.0905 -2.87706e-06 33.2389 1.16396 27.7792 3.42542C22.3196 5.68688 17.3588 9.00155 13.1802 13.1802C9.00156 17.3588 5.68688 22.3196 3.42542 27.7792C1.16396 33.2389 -1.35258e-06 39.0905 -1.85442e-06 45C-2.35626e-06 50.9095 1.16396 56.7611 3.42542 62.2208C5.68688 67.6804 9.00155 72.6412 13.1802 76.8198C17.3588 80.9984 22.3196 84.3131 27.7792 86.5746C33.2389 88.836 39.0905 90 45 90L45 66.0065C42.2414 66.0065 39.5098 65.4631 36.9612 64.4074C34.4126 63.3518 32.0968 61.8044 30.1462 59.8538C28.1956 57.9032 26.6482 55.5874 25.5926 53.0388C24.5369 50.4902 23.9935 47.7586 23.9935 45C23.9935 42.2414 24.5369 39.5098 25.5926 36.9612C26.6482 34.4126 28.1956 32.0968 30.1462 30.1462C32.0968 28.1956 34.4126 26.6482 36.9612 25.5926C39.5098 24.5369 42.2414 23.9936 45 23.9936L45 -2.08644e-06Z" fill="current"/>
</svg>
