<svg width="100" height="100" viewBox="0 0 100 100" fill="none" xmlns="http://www.w3.org/2000/svg">
<rect width="100" height="100" rx="50" fill="white"/>
<path d="M81.2637 60.5633C78.7313 68.0582 73.5906 74.3941 66.7782 78.4164C59.9659 82.4387 51.9352 83.8798 44.1493 82.4772C36.3634 81.0746 29.3404 76.9216 24.36 70.7748C19.3796 64.628 16.7731 56.8965 17.0155 48.989C17.2579 41.0815 20.3329 33.5242 25.6804 27.694C31.028 21.8637 38.2921 18.1486 46.1492 17.2254C54.0064 16.3023 61.9338 18.2325 68.487 22.6645C75.0403 27.0965 79.7833 33.7352 81.8519 41.3712L50 50L81.2637 60.5633Z" fill="#469FAB"/>
<rect x="54" y="31" width="8" height="8" rx="4" fill="white"/>
</svg>
